<svg height="512" viewBox="0 0 24 24" width="512" xmlns="http://www.w3.org/2000/svg"><g id="Layer_2" data-name="Layer 2"><path d="m8.4 22.623a2.634 2.634 0 0 1 -2.284-1.313l-.584-1.01a2.712 2.712 0 0 1 .147-2.853 1.747 1.747 0 0 0 .043-1.82 1.77 1.77 0 0 0 -1.6-.874 2.715 2.715 0 0 1 -2.543-1.3l-.579-1.012a2.632 2.632 0 0 1 .963-3.592l12.332-7.12a2.635 2.635 0 0 1 3.593.961l.58 1.01a2.712 2.712 0 0 1 -.147 2.853 1.747 1.747 0 0 0 -.043 1.82 1.768 1.768 0 0 0 1.6.874 2.718 2.718 0 0 1 2.543 1.3l.579 1.012a2.632 2.632 0 0 1 -.963 3.592l-12.328 7.12a2.607 2.607 0 0 1 -1.309.352zm-4.195-9.373a3.25 3.25 0 0 1 2.737 5 1.243 1.243 0 0 0 -.111 1.295l.584 1.01a1.133 1.133 0 0 0 1.544.414l12.332-7.12a1.131 1.131 0 0 0 .414-1.544l-.584-1.005a1.27 1.27 0 0 0 -1.176-.551 3.215 3.215 0 0 1 -2.966-1.622 3.242 3.242 0 0 1 .079-3.379 1.243 1.243 0 0 0 .111-1.3l-.584-1.01a1.133 1.133 0 0 0 -1.544-.414l-12.332 7.123a1.131 1.131 0 0 0 -.409 1.544l.579 1.009a1.262 1.262 0 0 0 1.176.551q.075-.001.15-.001z"/><path d="m9.269 12.018a.75.75 0 0 1 -.376-1.4l3.464-2a.75.75 0 1 1 .75 1.3l-3.464 2a.741.741 0 0 1 -.374.1z"/><path d="m11.269 15.482a.75.75 0 0 1 -.376-1.4l3.464-2a.75.75 0 1 1 .75 1.3l-3.464 2a.741.741 0 0 1 -.374.1z"/></g></svg>