<svg id="Capa_1" enable-background="#fff" height="512" viewBox="0 0 512.048 512.048" width="512" fill="white" xmlns="http://www.w3.org/2000/svg"><path d="m507.004 397c-.604-1.38-1.359-2.687-2.256-3.896l-46.653-62.983c-3.772-5.093-9.734-8.096-16.071-8.096h-352v-211c0-22.056 17.944-40 40-40h252c22.056 0 40 17.944 40 40v130c0 11.046 8.954 20 20 20s20-8.954 20-20v-130c0-44.112-35.888-80-80-80h-252c-44.112 0-80 35.888-80 80v224.4l-42.725 57.678c-.896 1.21-1.652 2.517-2.255 3.896-8.135 18.615-6.351 39.878 4.771 56.877 11.123 17 29.893 27.148 50.208 27.148h392c20.314 0 39.083-10.148 50.206-27.147 11.125-17 12.909-38.262 4.775-56.877zm-38.245 34.975c-3.764 5.751-9.863 9.049-16.735 9.049h-126c0-11.046-8.954-20-20-20h-100c-11.046 0-20 8.954-20 20h-126c-6.873 0-12.973-3.299-16.736-9.05-3.413-5.216-4.207-11.386-2.271-17.188l39.082-52.763h351.851l39.082 52.763c1.935 5.802 1.14 11.972-2.273 17.189zm-307.268-180.691c-7.589 8.027-7.233 20.686.793 28.273 3.866 3.655 8.806 5.467 13.736 5.467 5.308 0 10.604-2.1 14.537-6.26 16.939-17.918 39.842-27.786 64.487-27.786.162 0 .318-.02.479-.024.161.004.317.024.479.024 24.646 0 47.549 9.868 64.488 27.786 3.934 4.161 9.229 6.26 14.537 6.26 4.93 0 9.871-1.813 13.736-5.467 8.026-7.588 8.382-20.246.793-28.273-11.086-11.726-24.248-21.155-38.638-27.941 10.061-12.385 16.105-28.156 16.105-45.319 0-39.701-32.299-72-72-72s-72 32.299-72 72c0 17.32 6.15 33.23 16.377 45.665-14.105 6.76-27.01 16.066-37.909 27.595zm93.533-105.26c17.645 0 32 14.355 32 32s-14.355 32-32 32-32-14.355-32-32 14.355-32 32-32z"/></svg>