<svg id="Capa_1" enable-background="new 0 0 512 512" height="512" viewBox="0 0 512 512" width="512" xmlns="http://www.w3.org/2000/svg"><g><path d="m452 76h-392c-33.084 0-60 26.916-60 60v240c0 33.084 26.916 60 60 60h392c33.084 0 60-26.916 60-60v-240c0-33.084-26.916-60-60-60zm-392 40h392c11.028 0 20 8.972 20 20v20h-432v-20c0-11.028 8.972-20 20-20zm392 280h-392c-11.028 0-20-8.972-20-20v-180h432v180c0 11.028-8.972 20-20 20z"/><path d="m176 316h-80c-11.046 0-20 8.954-20 20s8.954 20 20 20h80c11.046 0 20-8.954 20-20s-8.954-20-20-20z"/><circle cx="256" cy="336" r="20"/><circle cx="336" cy="336" r="20"/><circle cx="416" cy="336" r="20"/></g></svg>