<svg id="Layer_1" enable-background="new 0 0 512 512" height="512" viewBox="0 0 512 512" width="512" xmlns="http://www.w3.org/2000/svg"><path d="m125.984 89-3.785-34.075c-3.478-31.313-29.859-54.925-61.363-54.925-33.545 0-60.836 27.291-60.836 60.836v21.164h40v-21.164c0-11.489 9.347-20.836 20.836-20.836 11.094 0 20.383 8.314 21.607 19.341l35.892 323.155h.002c2.808 26.054 22.519 46.401 47.564 50.665-2.479 6.17-3.901 12.836-3.901 19.839 0 32.532 26.467 59 59 59s59-26.468 59-59c0-6.647-1.121-13.033-3.157-19h90.314c-2.036 5.967-3.157 12.353-3.157 19 0 32.532 26.467 59 59 59s59-26.468 59-59-26.467-59-59-59c-1.346 0-247.308 0-247.308 0-9.071 0-16.633-6.802-17.59-15.822-1.023-9.649 5.99-18.374 15.646-19.448l284.923-31.876c30.402-3.402 53.329-29.036 53.329-59.628v-178.226zm114.016 364c0 10.477-8.523 19-19 19s-19-8.523-19-19c0-10.011 12.905-19 19-19 10.477 0 19 8.523 19 19zm202 0c0 10.477-8.523 19-19 19s-19-8.523-19-19 8.523-19 19-19 19 8.523 19 19zm30-185.774c0 10.197-7.642 18.742-17.776 19.876l-284.911 31.875c-6.124.681-11.917 2.32-17.26 4.731l-21.626-194.708h341.573z"/></svg>