<svg id="Layer_1" enable-background="new 0 0 512 512" viewBox="0 0 512 512" xmlns="http://www.w3.org/2000/svg"><g id="Layer_2_00000030473488031137604640000010881549889853806738_"><g id="favourite"><path d="m256 474.3c-6.6 0-12.9-2.6-17.6-7.2l-198.4-194.9-.2-.2c-43.7-43.6-52.4-111.2-21.2-164.4 1-1.7 1.7-2.8 1.9-3.1.3-.5.7-1 1.1-1.6 31.6-41.8 68.9-63.8 111-65.2 53.1-1.7 98.9 30.7 123.4 52.3 24.5-21.6 70.3-54 123.4-52.2 42.1 1.4 79.5 23.4 111 65.2.4.5.7 1 1.1 1.5.2.3.9 1.3 1.9 3.1 31.3 53.2 22.6 120.8-21.1 164.4l-.2.2-198.5 194.9c-4.7 4.6-11 7.2-17.6 7.2zm-180.8-237.8 180.8 177.5 180.8-177.5c27.5-27.4 32.9-69.9 13.3-103.4l-.4-.7c-21.8-28.5-46-43.5-71.9-44.4-.9 0-1.9 0-2.8 0-52.5 0-99.6 53.2-100.1 53.7-9 10.4-24.8 11.6-35.3 2.6-.9-.8-1.8-1.6-2.6-2.6-.5-.6-49.3-55.6-102.9-53.7-25.9.9-50.1 15.9-71.8 44.4-.1.2-.3.4-.4.8-19.6 33.4-14.1 75.9 13.3 103.3z" fill="rgb(0,0,0)"/></g></g></svg>