<svg id="Capa_1" enable-background="new 0 0 512 512" height="512" viewBox="0 0 512 512" width="512" fill="white" xmlns="http://www.w3.org/2000/svg"><g><path d="m256 512c-68.38 0-132.667-26.629-181.02-74.98-48.351-48.353-74.98-112.64-74.98-181.02s26.629-132.667 74.98-181.02c48.353-48.351 112.64-74.98 181.02-74.98s132.667 26.629 181.02 74.98c48.351 48.353 74.98 112.64 74.98 181.02s-26.629 132.667-74.98 181.02c-48.353 48.351-112.64 74.98-181.02 74.98zm0-472c-57.696 0-111.938 22.468-152.735 63.265-40.797 40.797-63.265 95.039-63.265 152.735s22.468 111.938 63.265 152.735 95.039 63.265 152.735 63.265 111.938-22.468 152.735-63.265 63.265-95.039 63.265-152.735-22.468-111.938-63.265-152.735c-40.797-40.797-95.039-63.265-152.735-63.265zm20 376h-40v-40c-38.598 0-70-31.402-70-70h40c0 16.542 13.458 30 30 30h40c16.542 0 30-13.458 30-30s-13.458-30-30-30h-40c-38.598 0-70-31.402-70-70s31.402-70 70-70v-40h40v40c38.598 0 70 31.402 70 70h-40c0-16.542-13.458-30-30-30h-40c-16.542 0-30 13.458-30 30s13.458 30 30 30h40c38.598 0 70 31.402 70 70s-31.402 70-70 70z"/></g></svg>