<svg id="Capa_1" enable-background="new 0 0 548.25 548.25" height="512" viewBox="0 0 548.25 548.25" width="512" xmlns="http://www.w3.org/2000/svg"><g><g id="Icon_17_" clip-rule="evenodd" fill-rule="evenodd"><path d="m159.375 344.25c38.709 0 70.125 31.416 70.125 70.125s-31.416 70.125-70.125 70.125-70.125-31.416-70.125-70.125 31.416-70.125 70.125-70.125zm0 38.25c-17.595 0-31.875 14.28-31.875 31.875s14.28 31.875 31.875 31.875 31.875-14.28 31.875-31.875-14.28-31.875-31.875-31.875z"/><path d="m388.875 344.25c38.709 0 70.125 31.416 70.125 70.125s-31.416 70.125-70.125 70.125-70.125-31.416-70.125-70.125 31.416-70.125 70.125-70.125zm0 38.25c-17.595 0-31.875 14.28-31.875 31.875s14.28 31.875 31.875 31.875 31.875-14.28 31.875-31.875-14.28-31.875-31.875-31.875z"/><path d="m210.375 433.5c-10.557 0-19.125-8.568-19.125-19.125s8.568-19.125 19.125-19.125h127.5c10.557 0 19.125 8.568 19.125 19.125s-8.568 19.125-19.125 19.125z"/><path d="m369.75 363.375c0 10.557-8.568 19.125-19.125 19.125s-19.125-8.568-19.125-19.125v-229.5c0-8.466-3.366-16.55-9.333-22.542-5.992-5.967-14.076-9.333-22.542-9.333h-229.5c-8.466 0-16.549 3.366-22.542 9.333-5.967 5.993-9.333 14.076-9.333 22.542v229.5c0 17.595 14.28 31.875 31.875 31.875h38.25c10.557 0 19.125 8.568 19.125 19.125s-8.568 19.125-19.125 19.125h-38.25c-38.735 0-70.125-31.391-70.125-70.125v-229.5c0-18.59 7.395-36.44 20.528-49.598 13.158-13.132 31.007-20.527 49.597-20.527h229.5c18.59 0 36.439 7.395 49.598 20.528 13.133 13.158 20.527 31.008 20.527 49.598z"/><path d="m439.875 433.5c-10.557 0-19.125-8.568-19.125-19.125s8.568-19.125 19.125-19.125h63.75c3.519 0 6.375-2.856 6.375-6.375v-91.596c0-11.322-3.341-22.389-9.639-31.824l-56.074-84.125c-1.199-1.76-3.188-2.83-5.304-2.83h-69.233v197.625c0 10.557-8.568 19.125-19.125 19.125s-19.125-8.568-19.125-19.125v-216.75c0-10.557 8.568-19.125 19.125-19.125h88.358c14.917 0 28.841 7.446 37.128 19.864l56.075 84.125c10.48 15.708 16.065 34.17 16.065 53.04v91.596c0 24.658-19.992 44.625-44.625 44.625z"/><path d="m516.375 255c10.557 0 19.125 8.568 19.125 19.125s-8.568 19.125-19.125 19.125h-165.75c-10.557 0-19.125-8.568-19.125-19.125s8.568-19.125 19.125-19.125z"/></g></g></svg>