<?xml version="1.0"?>
<svg xmlns="http://www.w3.org/2000/svg" id="Layer_1" data-name="Layer 1" viewBox="0 0 64 64" width="512" height="512"><path d="M44.67,15.84A19,19,0,1,0,22.45,46.41a1,1,0,0,1,.55.89V49a5,5,0,0,0,1.61,3.65A5,5,0,0,0,24,55v2a5,5,0,0,0,5,5h1a2,2,0,0,0,4,0h1a5,5,0,0,0,5-5V55a5,5,0,0,0-.61-2.35A5,5,0,0,0,41,49V47.3a1,1,0,0,1,.54-.88,19,19,0,0,0,3.13-30.58ZM36,57a1,1,0,0,1-1,1H29a1,1,0,0,1-1-1V55a1,1,0,0,1,1-1h6a1,1,0,0,1,1,1Zm3.53-14A5.06,5.06,0,0,0,37,47.3V49a1,1,0,0,1-1,1H28a1,1,0,0,1-1-1V47.3A5.06,5.06,0,0,0,24.47,43,15,15,0,0,1,32,15a15,15,0,0,1,7.51,28Z"/><path d="M40.83,32.7a2,2,0,1,0,.75,2.72A2,2,0,0,0,40.83,32.7Z"/><path d="M30.72,19.07a2,2,0,0,0,.44,4,7,7,0,0,1,7.34,4.34,2,2,0,0,0,3.71-1.49A11,11,0,0,0,30.72,19.07Z"/><path d="M32,7a2,2,0,0,0,2-2V2a2,2,0,0,0-4,0V5A2,2,0,0,0,32,7Z"/><path d="M50.38,8.79l-2.12,2.12a2,2,0,0,0,1.42,3.41,2,2,0,0,0,1.41-.58l2.12-2.12a2,2,0,1,0-2.83-2.83Z"/><path d="M60,28H57a2,2,0,0,0,0,4h3a2,2,0,0,0,0-4Z"/><path d="M51.09,46.26a2,2,0,1,0-2.83,2.83l2.12,2.12a2,2,0,0,0,1.42.59,2,2,0,0,0,1.41-3.42Z"/><path d="M12.91,46.26l-2.12,2.12a2,2,0,1,0,2.83,2.83l2.12-2.12a2,2,0,1,0-2.83-2.83Z"/><path d="M7,28H4a2,2,0,0,0,0,4H7a2,2,0,0,0,0-4Z"/><path d="M12.91,13.74a2,2,0,0,0,1.41.58,2,2,0,0,0,1.42-3.41L13.62,8.79a2,2,0,1,0-2.83,2.83Z"/></svg>
